<?xml version="1.0" encoding="utf-8"?>
<!-- Generator: Adobe Illustrator 26.0.2, SVG Export Plug-In . SVG Version: 6.00 Build 0)  -->
<svg version="1.1" id="Layer_1" xmlns="http://www.w3.org/2000/svg" xmlns:xlink="http://www.w3.org/1999/xlink" x="0px" y="0px"
	 viewBox="0 0 270.8 57.7" style="enable-background:new 0 0 270.8 57.7;" xml:space="preserve">
<style type="text/css">
	.st0{fill:#2F63AC;}
	.st1{fill:#3063AD;}
	.st2{fill:#34C3EE;}
	.st3{fill:#83C447;}
	.st4{fill:#F7D337;}
	.st5{fill:#F79424;}
</style>
<g id="Layer_2_00000021098616179530077220000011625015309039673498_">
</g>
<g id="Layer_1_00000152959070005862231860000007461287706121006746_">
	<g>
		<g>
			<path class="st0" d="M72.3,24.9c-1.3-0.4-2.3-0.6-3.2-0.6c-1.1,0-1.8,0.4-1.8,1.2c0,0.4,0.2,0.6,0.5,0.8c0.4,0.2,1,0.3,1.8,0.5
				c1.1,0.2,2,0.5,2.5,0.9s0.8,1,0.8,1.8c0,1.9-1.5,2.9-3.7,2.9c-1.4,0-2.7-0.3-3.9-0.8l0.4-1.5c1.3,0.5,2.5,0.8,3.6,0.8
				c1.3,0,2-0.4,2-1.2c0-0.5-0.4-0.9-1.1-1.2c-0.2-0.1-0.8-0.2-1.7-0.4c-2.1-0.4-3-1.1-3-2.6c0-0.9,0.3-1.5,1-2
				c0.6-0.5,1.5-0.8,2.6-0.8c1.3,0,2.5,0.2,3.6,0.6L72.3,24.9z"/>
			<path class="st0" d="M80.2,32.1c-0.4,0.1-1,0.2-1.7,0.2c-0.8,0.1-1.4,0.1-2,0.1c-1.7,0-2.7-0.8-2.7-2.5v-4.2h1.6v3.8
				c0,1,0.5,1.5,1.5,1.5c0.6,0,1.2,0,1.8-0.1v-5.2h1.6v6.4H80.2z"/>
			<path class="st0" d="M88.4,29c0,1-0.3,1.8-0.9,2.4s-1.3,0.9-2.3,0.9c-0.8,0-1.5,0-2.1-0.1v3.2h-1.6v-9.6c1.3-0.2,2.4-0.3,3.6-0.3
				C87.2,25.5,88.4,26.9,88.4,29z M86.9,29c0-1.3-0.6-2.1-1.9-2.1c-0.6,0-1.2,0-1.8,0.1v3.9c0.5,0.1,1.2,0.1,1.9,0.1
				C86.1,31,86.9,30.2,86.9,29z"/>
			<path class="st0" d="M96.3,29c0,1-0.3,1.8-0.9,2.4s-1.3,0.9-2.3,0.9c-0.8,0-1.5,0-2.1-0.1v3.2h-1.6v-9.6c1.3-0.2,2.4-0.3,3.6-0.3
				C95,25.5,96.2,26.9,96.3,29z M94.7,29c0-1.3-0.6-2.1-1.9-2.1c-0.6,0-1.2,0-1.8,0.1v3.9c0.5,0.1,1.2,0.1,1.9,0.1
				C94,31,94.7,30.2,94.7,29z"/>
			<path class="st0" d="M98.9,32.3h-1.6v-9.8h1.6V32.3z"/>
			<path class="st0" d="M102.7,35.4h-1.8l1.8-3.6l-3.2-6.1h1.8l2.3,4.3l2.1-4.3h1.8L102.7,35.4z"/>
			<path class="st0" d="M117.3,24.7c-1.1-0.3-2.1-0.4-2.7-0.4c-1.2,0-2.1,0.3-2.7,0.9s-1,1.4-1,2.4s0.3,1.8,1,2.4
				c0.6,0.6,1.5,0.9,2.6,0.9c0.8,0,1.8-0.1,2.9-0.4l0.3,1.4c-1.2,0.3-2.3,0.5-3.3,0.5c-1.6,0-2.8-0.5-3.8-1.4s-1.4-2.1-1.4-3.6
				s0.5-2.6,1.4-3.5c1-0.9,2.2-1.4,3.8-1.4c1.1,0,2.2,0.1,3.3,0.4L117.3,24.7z"/>
			<path class="st0" d="M125.2,28.1v4.2h-1.6v-3.7c0-0.9-0.6-1.5-1.5-1.5c-0.6,0-1.2,0.1-1.8,0.2v5.1h-1.6v-9.8h1.6v3.3
				c0.7-0.1,1.4-0.2,2.2-0.2C124.1,25.5,125.2,26.5,125.2,28.1z"/>
			<path class="st0" d="M132.9,25.9v6.4h-1.6v-0.5c-0.7,0.5-1.4,0.7-2.1,0.7c-1,0-1.7-0.3-2.3-1c-0.6-0.6-0.9-1.5-0.9-2.6
				c0-2.1,1.2-3.4,3.3-3.4C130.2,25.5,131.4,25.7,132.9,25.9z M127.6,29c0,1.3,0.7,2.1,1.8,2.1c0.6,0,1.3-0.2,1.9-0.7V27
				c-0.6-0.1-1.2-0.1-1.8-0.1C128.2,26.9,127.6,27.7,127.6,29z"/>
			<path class="st0" d="M135,22.5c0.6,0,1.1,0.5,1.1,1.1s-0.5,1-1.1,1s-1.1-0.4-1.1-1S134.4,22.5,135,22.5z M135.8,32.3h-1.6v-6.5
				h1.6V32.3z"/>
			<path class="st0" d="M143.7,28.1v4.2h-1.6v-3.7c0-0.9-0.6-1.5-1.5-1.5c-0.5,0-1.1,0-1.8,0.1v5.2h-1.6V26c1.1-0.2,2.3-0.3,3.8-0.3
				C142.6,25.5,143.7,26.5,143.7,28.1z"/>
			<path class="st0" d="M153.7,27.2v1.5h-4.4v3.5h-1.7v-9.4h6.6v1.5h-5v2.8h4.5V27.2z"/>
			<path class="st0" d="M155.6,22.5c0.6,0,1.1,0.5,1.1,1.1s-0.5,1-1.1,1s-1.1-0.4-1.1-1S155,22.5,155.6,22.5z M156.4,32.3h-1.6v-6.5
				h1.6V32.3z"/>
			<path class="st0" d="M164.3,28.1v4.2h-1.6v-3.7c0-0.9-0.6-1.5-1.5-1.5c-0.5,0-1.1,0-1.8,0.1v5.2h-1.6V26c1.1-0.2,2.3-0.3,3.8-0.3
				C163.2,25.5,164.3,26.5,164.3,28.1z"/>
			<path class="st0" d="M171.9,25.9v6.4h-1.6v-0.5c-0.7,0.5-1.4,0.7-2.1,0.7c-1,0-1.7-0.3-2.3-1c-0.6-0.6-0.9-1.5-0.9-2.6
				c0-2.1,1.2-3.4,3.3-3.4C169.3,25.5,170.5,25.7,171.9,25.9z M166.6,29c0,1.3,0.7,2.1,1.8,2.1c0.6,0,1.3-0.2,1.9-0.7V27
				c-0.6-0.1-1.2-0.1-1.8-0.1C167.2,26.9,166.6,27.7,166.6,29z"/>
			<path class="st0" d="M179.8,28.1v4.2h-1.6v-3.7c0-0.9-0.6-1.5-1.5-1.5c-0.5,0-1.1,0-1.8,0.1v5.2h-1.6V26c1.1-0.2,2.3-0.3,3.8-0.3
				C178.7,25.5,179.8,26.5,179.8,28.1z"/>
			<path class="st0" d="M186.4,27.1c-0.8-0.2-1.5-0.3-1.9-0.3c-1.4,0-2.3,0.9-2.3,2.2c0,1.3,0.9,2.1,2.2,2.1c0.6,0,1.2-0.1,2-0.3
				l0.2,1.3c-0.8,0.3-1.6,0.4-2.4,0.4c-1.1,0-2-0.3-2.6-1c-0.7-0.6-1-1.5-1-2.6s0.3-1.9,1-2.5s1.6-1,2.7-1c0.8,0,1.6,0.1,2.3,0.3
				L186.4,27.1z"/>
			<path class="st0" d="M192.6,26.3c0.6,0.5,0.9,1.2,0.9,2.1c0,0.4,0,0.8-0.1,1.2h-4.8c0.2,0.9,1,1.4,2.1,1.4c0.5,0,1.3-0.1,2.3-0.4
				l0.2,1.3c-1,0.3-1.9,0.5-2.6,0.5c-1.2,0-2.1-0.3-2.8-1c-0.6-0.6-1-1.5-1-2.5s0.3-1.9,1-2.5c0.6-0.6,1.5-1,2.5-1
				C191.3,25.5,192,25.8,192.6,26.3z M188.5,28.4h3.5c0-1-0.7-1.6-1.7-1.6C189.4,26.8,188.7,27.4,188.5,28.4z"/>
			<path class="st0" d="M204.6,24.7c-1.1-0.3-2.1-0.4-2.7-0.4c-1.2,0-2.1,0.3-2.7,0.9c-0.6,0.6-1,1.4-1,2.4s0.3,1.8,1,2.4
				c0.6,0.6,1.5,0.9,2.6,0.9c0.8,0,1.8-0.1,2.9-0.4L205,32c-1.2,0.3-2.3,0.5-3.3,0.5c-1.6,0-2.8-0.5-3.8-1.4s-1.4-2.1-1.4-3.6
				s0.5-2.6,1.4-3.5c1-0.9,2.2-1.4,3.8-1.4c1.1,0,2.2,0.1,3.3,0.4L204.6,24.7z"/>
			<path class="st0" d="M211.8,26.4c0.7,0.6,1,1.5,1,2.5c0,1.1-0.3,1.9-1,2.6c-0.7,0.6-1.5,1-2.6,1s-2-0.3-2.6-1
				c-0.7-0.6-1-1.5-1-2.6c0-1,0.3-1.9,1-2.5s1.6-1,2.6-1C210.3,25.5,211.1,25.8,211.8,26.4z M211.2,29c0-1.2-0.8-2.1-2-2.1
				s-2.1,0.8-2.1,2.1c0,1.3,0.8,2.1,2.1,2.1C210.4,31.1,211.2,30.2,211.2,29z"/>
			<path class="st0" d="M224.5,28.1v4.2h-1.6v-3.7c0-1-0.5-1.5-1.5-1.5c-0.6,0-1.1,0.1-1.6,0.2c0.1,0.3,0.1,0.6,0.1,0.9v4.2h-1.6
				v-3.8c0-1-0.5-1.5-1.5-1.5c-0.5,0-1,0-1.5,0.1v5.2h-1.6V26c0.3-0.1,0.8-0.2,1.5-0.2c0.7-0.1,1.3-0.1,1.9-0.1
				c0.8,0,1.4,0.1,1.8,0.4c0.8-0.3,1.7-0.4,2.8-0.4C223.5,25.5,224.5,26.4,224.5,28.1z"/>
			<path class="st0" d="M236.6,28.1v4.2H235v-3.7c0-1-0.5-1.5-1.5-1.5c-0.6,0-1.1,0.1-1.6,0.2c0.1,0.3,0.1,0.6,0.1,0.9v4.2h-1.6
				v-3.8c0-1-0.5-1.5-1.5-1.5c-0.5,0-1,0-1.5,0.1v5.2h-1.6V26c0.3-0.1,0.8-0.2,1.5-0.2c0.7-0.1,1.3-0.1,1.9-0.1
				c0.8,0,1.4,0.1,1.8,0.4c0.8-0.3,1.7-0.4,2.8-0.4C235.6,25.5,236.6,26.4,236.6,28.1z"/>
			<path class="st0" d="M244.3,32.1c-0.4,0.1-1,0.2-1.7,0.2c-0.8,0.1-1.4,0.1-2,0.1c-1.7,0-2.7-0.8-2.7-2.5v-4.2h1.6v3.8
				c0,1,0.5,1.5,1.5,1.5c0.6,0,1.2,0,1.8-0.1v-5.2h1.6v6.4H244.3z"/>
			<path class="st0" d="M252.2,28.1v4.2h-1.6v-3.7c0-0.9-0.6-1.5-1.5-1.5c-0.5,0-1.1,0-1.8,0.1v5.2h-1.6V26c1.1-0.2,2.3-0.3,3.8-0.3
				C251.1,25.5,252.2,26.5,252.2,28.1z"/>
			<path class="st0" d="M254.2,22.5c0.6,0,1.1,0.5,1.1,1.1s-0.5,1-1.1,1s-1.1-0.4-1.1-1C253.2,23,253.6,22.5,254.2,22.5z M255,32.3
				h-1.6v-6.5h1.6V32.3z"/>
			<path class="st0" d="M261.2,32.3c-0.6,0.1-1.2,0.2-1.7,0.2c-1.6,0-2.4-0.9-2.4-2.6v-2.7h-1.4v-1.4h1.4v-2.5h1.6v2.5h2.2v1.4h-2.2
				v2.6c0,0.9,0.3,1.3,1.1,1.3c0.4,0,0.8,0,1.3-0.1L261.2,32.3z"/>
			<path class="st0" d="M264.4,35.4h-1.8l1.8-3.6l-3.2-6.1h1.8l2.3,4.3l2.1-4.3h1.8L264.4,35.4z"/>
		</g>
		<g>
			<g>
				<path class="st1" d="M52.2,29c0,13.6-11,24.7-24.7,24.7c-13.6,0-24.7-11-24.7-24.7c0-13.6,11-24.7,24.7-24.7V3
					c-14.4,0-26,11.7-26,26c0,14.4,11.7,26,26,26c14.4,0,26-11.7,26-26H52.2z"/>
				<path class="st2" d="M43.3,44.8c-8.7,8.7-22.9,8.7-31.6,0s-8.7-22.9,0-31.6s22.9-8.7,31.6,0l0.9-0.9C35,3.1,20,3.1,10.8,12.3
					s-9.2,24.2,0,33.4s24.2,9.2,33.4,0L43.3,44.8z"/>
				<path class="st3" d="M27.5,48.9c-11,0-20-8.9-20-20c0-11,8.9-20,20-20s20,8.9,20,20h1.1c0-11.6-9.4-21.1-21.1-21.1
					C15.9,7.9,6.4,17.3,6.4,29c0,11.6,9.5,21,21.1,21V48.9z"/>
				<path class="st4" d="M15,16.5c6.9-6.9,18.1-6.9,25,0s6.9,18.1,0,25s-18.1,6.9-25,0l-0.7,0.7c7.3,7.3,19.1,7.3,26.4,0
					s7.3-19.1,0-26.4s-19.1-7.3-26.4,0L15,16.5z"/>
				<path class="st5" d="M27.5,13.8c8.4,0,15.1,6.8,15.1,15.1c0,8.4-6.8,15.1-15.1,15.1c-8.4,0-15.1-6.8-15.1-15.1h-0.8
					c0,8.8,7.2,16,16,16s16-7.2,16-16s-7.2-16-16-16L27.5,13.8L27.5,13.8z"/>
			</g>
			<g>
				<path class="st2" d="M28.3,40.1c1.4-0.5,2.6-2,3.4-4.2c0.1-0.2,0-0.3-0.2-0.3h-3.2c-0.2,0-0.4,0.2-0.4,0.4v3.8
					C27.9,40,28.1,40.2,28.3,40.1z"/>
				<path class="st2" d="M23.1,36c0.8,2.1,2,3.5,3.4,4c0.2,0.1,0.3-0.1,0.3-0.3v-3.8c0-0.2-0.2-0.4-0.4-0.4h-3.1
					C23.1,35.7,23,35.9,23.1,36z"/>
				<path class="st2" d="M31.5,22.4c-0.9-2.1-2.1-3.7-3.5-4.1c-0.2-0.1-0.3,0.1-0.3,0.3v3.8c0,0.2,0.2,0.4,0.4,0.4h3.2
					C31.5,22.8,31.6,22.6,31.5,22.4z"/>
				<path class="st2" d="M20.8,24.1h-3c-0.2,0-0.4,0.1-0.5,0.3c-0.6,1.2-1,2.6-1.1,4c0,0.2,0.1,0.4,0.3,0.4h3.7
					c0.2,0,0.4-0.2,0.4-0.4c0-1.4,0.2-2.7,0.5-4C21.1,24.2,21,24.1,20.8,24.1z"/>
				<path class="st2" d="M33.9,30.1c0,1.4-0.2,2.7-0.5,4c0,0.2,0.1,0.3,0.3,0.3h2.9c0.2,0,0.4-0.1,0.5-0.3c0.6-1.2,1-2.6,1.1-4
					c0-0.2-0.1-0.4-0.3-0.4h-3.6C34.1,29.7,33.9,29.9,33.9,30.1z"/>
				<path class="st2" d="M26.1,18.4c-1.3,0.5-2.5,2-3.3,4.1c-0.1,0.2,0,0.3,0.2,0.3h3.1c0.2,0,0.4-0.2,0.4-0.4v-3.8
					C26.5,18.5,26.3,18.4,26.1,18.4z"/>
				<path class="st2" d="M20.3,29.9h-3.7c-0.2,0-0.3,0.2-0.3,0.4c0.1,1.4,0.5,2.8,1.2,4c0.1,0.2,0.3,0.3,0.5,0.3h3
					c0.2,0,0.3-0.2,0.3-0.3c-0.3-1.2-0.5-2.5-0.6-4C20.6,30.1,20.5,29.9,20.3,29.9z"/>
				<path class="st2" d="M23.4,18.9c-2,0.7-3.7,2.1-5,3.7c-0.1,0.2,0,0.3,0.1,0.3h2.6c0.2,0,0.4-0.2,0.5-0.3
					c0.5-1.4,1.1-2.6,1.9-3.5C23.6,18.9,23.6,18.8,23.4,18.9z"/>
				<path class="st2" d="M18.6,36c1.3,1.6,3.1,2.9,5.1,3.6c0.2,0.1,0.2,0,0.1-0.2c-0.8-0.9-1.4-2.1-2-3.4c-0.1-0.2-0.3-0.3-0.5-0.3
					h-2.6C18.5,35.8,18.4,35.9,18.6,36z"/>
				<path class="st2" d="M35.9,22.4c-1.3-1.6-2.9-2.8-4.9-3.5c-0.2-0.1-0.2,0-0.1,0.1c0.7,0.9,1.4,2,1.9,3.4
					c0.1,0.2,0.3,0.3,0.5,0.3h2.5C35.9,22.7,36,22.6,35.9,22.4z"/>
				<path class="st2" d="M34.3,28.6h3.6c0.2,0,0.3-0.2,0.3-0.4c-0.1-1.4-0.5-2.8-1.2-4c-0.1-0.2-0.3-0.3-0.5-0.3h-2.9
					c-0.2,0-0.3,0.2-0.3,0.3c0.3,1.2,0.5,2.5,0.6,4C33.9,28.4,34.1,28.6,34.3,28.6z"/>
				<path class="st2" d="M31.2,39.5c1.9-0.8,3.6-2,4.8-3.7c0.1-0.2,0-0.3-0.1-0.3h-2.5c-0.2,0-0.4,0.2-0.5,0.3
					c-0.5,1.4-1.1,2.5-1.8,3.4C31,39.5,31.1,39.6,31.2,39.5z"/>
				<path class="st2" d="M28.2,34.5h3.6c0.2,0,0.4-0.2,0.4-0.4c0.3-1.2,0.5-2.6,0.5-4c0-0.2-0.2-0.4-0.3-0.4l-4.3,0.1
					c-0.2,0-0.4,0.2-0.4,0.4l0.1,3.9C27.9,34.3,28,34.5,28.2,34.5z"/>
				<path class="st2" d="M21.8,30.2c0.1,1.4,0.3,2.7,0.6,4c0.1,0.2,0.3,0.3,0.5,0.3h3.4c0.2,0,0.4-0.2,0.4-0.4l-0.1-3.9
					c0-0.2-0.2-0.4-0.4-0.4l-4.1,0.1C22,29.9,21.8,30.1,21.8,30.2z"/>
				<path class="st2" d="M27.7,24.3l0.1,3.9c0,0.2,0.2,0.4,0.4,0.4l4.3-0.1c0.2,0,0.4-0.2,0.3-0.4c-0.1-1.4-0.3-2.7-0.6-4
					c-0.1-0.2-0.3-0.3-0.5-0.3h-3.6C27.9,24,27.7,24.1,27.7,24.3z"/>
				<path class="st2" d="M26.8,24.5l-0.1,3.9c0,0.2-0.2,0.4-0.4,0.4L22,28.7c-0.2,0-0.4-0.2-0.3-0.4c0.1-1.4,0.3-2.7,0.6-4
					c0.1-0.2,0.3-0.3,0.5-0.3h3.6C26.6,24.1,26.8,24.3,26.8,24.5z"/>
			</g>
		</g>
	</g>
</g>
</svg>
