<svg width="187" height="50" viewBox="0 0 187 50" fill="none" xmlns="http://www.w3.org/2000/svg">
<g clip-path="url(#clip0_2001_9)">
<path d="M187 0H0V50H173.443L187 0Z" fill="#1D1D1B"/>
<path d="M164.666 33.2793C163.73 33.2793 162.815 33.5543 162.036 34.0696C161.258 34.5848 160.651 35.3171 160.293 36.1739C159.934 37.0308 159.841 37.9736 160.023 38.8832C160.206 39.7928 160.657 40.6283 161.319 41.2841C161.981 41.9398 162.824 42.3864 163.742 42.5674C164.661 42.7483 165.612 42.6554 166.477 42.3005C167.342 41.9456 168.082 41.3446 168.602 40.5735C169.122 39.8024 169.4 38.8958 169.4 37.9684C169.4 37.3524 169.278 36.7424 169.041 36.1732C168.803 35.604 168.454 35.0868 168.015 34.6512C167.575 34.2157 167.053 33.8703 166.478 33.6349C165.904 33.3995 165.288 33.2786 164.666 33.2793Z" fill="white"/>
<path d="M83.2275 8.02106L74.0158 41.9789H83.5189L92.7255 8.02106H83.2275Z" fill="white"/>
<path d="M119.763 8.02106L114.62 26.8939L105.756 8.02106H96.8918L87.6852 41.9789H97.1371L102.428 22.4276L111.681 41.9789H120.008L129.215 8.02106H119.763Z" fill="white"/>
<path d="M143.932 34.1199C139.965 34.1199 137.077 31.4513 137.077 27.1319C137.077 21.2123 141.631 15.9257 147.301 15.9257C150.68 15.9257 152.837 17.5258 154.207 20.2907L162.437 15.9257C160.392 10.6846 155.531 7.3172 148.528 7.3172C135.349 7.3172 127.124 17.7486 127.124 27.7902C127.124 36.8645 133.831 42.6372 143.334 42.6372C149.846 42.6372 154.355 40.0192 157.683 36.2822L151.278 30.6715C149.074 32.859 146.907 34.1199 143.932 34.1199Z" fill="white"/>
<path d="M69.5633 8.02106L64.8501 25.4L60.1369 8.02106H51.6562L46.943 25.4L42.2298 8.02106H32.7318L41.9384 41.9789H42.4496H51.4415L55.894 24.5746L60.3516 41.9789H69.3435H69.8547L79.0613 8.02106H69.5633Z" fill="white"/>
<path d="M18.6177 33.9629L30.7381 16.0371L28.5655 8.02106H8.09732V16.0371H20.2126L8.09732 33.9629V41.9789H37.7721L35.5996 33.9629H18.6177Z" fill="white"/>
</g>
<defs>
<clipPath id="clip0_2001_9">
<rect width="187" height="50" fill="white"/>
</clipPath>
</defs>
</svg>
